G04 ================== begin FILE IDENTIFICATION RECORD ==================*
G04 Layout Name:  C:/USERS/USER/DESKTOP/VSCODE_ORCAD/WORKSPACE/CAD4/allegro/CAD4.brd*
G04 Film Name:    BOTTOM*
G04 File Format:  Gerber RS274X*
G04 File Origin:  Cadence Allegro 17.2-P019*
G04 Origin Date:  Thu Aug 01 11:25:39 2019*
G04 *
G04 Layer:  ETCH/BOTTOM*
G04 Layer:  PIN/BOTTOM*
G04 Layer:  VIA CLASS/BOTTOM*
G04 *
G04 Offset:    (0.000 0.000)*
G04 Mirror:    No*
G04 Mode:      Positive*
G04 Rotation:  0*
G04 FullContactRelief:  No*
G04 UndefLineWidth:     0.000*
G04 ================== end FILE IDENTIFICATION RECORD ====================*
%FSLAX25Y25*MOIN*%
%IR0*IPPOS*OFA0.00000B0.00000*MIA0B0*SFA1.00000B1.00000*%
%ADD12C,.06*%
%ADD11C,.065*%
%ADD14C,.075*%
%ADD15R,.06X.06*%
%ADD13R,.075X.075*%
%ADD10C,.025*%
%ADD16C,.03937*%
%ADD17C,.019685*%
%ADD18C,.094567*%
%ADD19C,.089528*%
G75*
%LPD*%
G75*
G36*
G01X143031Y20362D02*
G02X142740Y19685I-292J-276D01*
G01X46236D01*
G02X45945Y20362I0J401D01*
G03X39094I-3425J3260D01*
G02X38803Y19685I-292J-276D01*
G01X29693D01*
Y29693D01*
X19685D01*
Y32657D01*
G02X20370Y32941I401J0D01*
G01X22654Y30661D01*
X38835D01*
G03Y36583I3685J2961D01*
G01X25102D01*
X22646Y39039D01*
Y134122D01*
G03X19685Y141957I-2961J3358D01*
G01Y143004D01*
G03Y151957I0J4476D01*
G01Y153004D01*
G03X23043Y154520I0J4478D01*
G01X26295D01*
X27039Y153776D01*
Y65744D01*
X34327Y58457D01*
X38835D01*
G03Y64378I3685J2961D01*
G01X36776D01*
X32961Y68193D01*
Y156224D01*
X28744Y160441D01*
X23043D01*
G03X19685Y161957I-3358J-2962D01*
G01Y245898D01*
X29693D01*
Y255906D01*
X364008D01*
Y245898D01*
X374016D01*
Y152272D01*
G03Y143319I0J-4476D01*
G01Y142272D01*
G03Y133319I0J-4476D01*
G01Y29693D01*
X364008D01*
Y19685D01*
X150173D01*
G02X149882Y20362I0J401D01*
G03X143031I-3425J3260D01*
G37*
%LPC*%
G75*
G36*
G01X100398Y25945D02*
G03X99681I-358J-186D01*
G02X90980Y25051I-4643J2402D01*
G03X90268Y24799I-312J-252D01*
G01Y24598D01*
G02X88787Y23118I-1478J-2D01*
G01X81291D01*
G02X79811Y24598I-2J1478D01*
G01Y32094D01*
G02X81291Y33575I1478J2D01*
G01X88787D01*
G02X90268Y32094I2J-1478D01*
G01Y31894D01*
G03X90980Y31642I401J0D01*
G02X99681Y30748I4058J-3296D01*
G03X100398I358J186D01*
G02Y25945I4642J-2402D01*
G37*
G36*
G01X117039Y211843D02*
Y231276D01*
X110425Y237890D01*
Y244189D01*
G02X116346I2961J3685D01*
G01Y240339D01*
X122961Y233724D01*
Y190650D01*
G03X123457Y190260I402J1D01*
G02X120028Y186256I1032J-4355D01*
G03X119343Y186571I-400J32D01*
G01X118957Y186185D01*
X118961Y186098D01*
G02X117516Y182606I-4473J-194D01*
G01X117449Y182547D01*
Y181736D01*
X140780Y158406D01*
Y101197D01*
X131110Y91528D01*
X126193D01*
G02Y97449I-3358J2961D01*
G01X128661D01*
X131016Y99803D01*
G03X130906Y100449I-285J284D01*
G02X129476Y101528I1928J4040D01*
G01X96787D01*
X87039Y111276D01*
Y133815D01*
G02X93685Y140461I2961J3685D01*
G01X98776D01*
X101528Y143213D01*
Y152547D01*
G02X106004Y160118I2960J3359D01*
G03X106543Y160496I138J377D01*
G01Y174996D01*
G03X105858Y175280I-401J-1D01*
G01X104134Y173555D01*
X86634D01*
X83945Y170866D01*
Y99539D01*
X84799Y98685D01*
G03X85469Y98854I285J283D01*
G02X91354Y92969I4531J-1354D01*
G03X91185Y92299I113J-385D01*
G01X108984Y74500D01*
Y69575D01*
G02X100398Y63740I-3943J-3433D01*
G03X99681I-358J-186D01*
G02X90980Y62846I-4643J2402D01*
G03X90268Y62594I-312J-252D01*
G01Y62394D01*
G02X88787Y60913I-1478J-2D01*
G01X81291D01*
G02X79811Y62394I-2J1478D01*
G01Y69890D01*
G02X81291Y71370I1478J2D01*
G01X88787D01*
G02X90268Y69890I2J-1478D01*
G01Y69689D01*
G03X90980Y69437I401J0D01*
G02X99681Y68543I4058J-3296D01*
G03X100398I358J186D01*
G02X101047Y69516I4644J-2399D01*
G01X101094Y69575D01*
Y71232D01*
X76055Y96272D01*
Y174134D01*
X83366Y181445D01*
X91783D01*
G03X92008Y182181I1J402D01*
G02X96969I2480J3724D01*
G03X97193Y181445I223J-334D01*
G01X100543D01*
Y183787D01*
X100520Y183835D01*
G02X106004Y190118I3969J2071D01*
G03X106543Y190496I138J377D01*
G01Y205217D01*
X108685Y207358D01*
X108677Y207453D01*
G02X116382Y211531I4709J421D01*
G03X117039Y211843I256J309D01*
G37*
G36*
G01X178961Y132724D02*
X190016D01*
G02Y126803I3685J-2961D01*
G01X176512D01*
X159539Y143776D01*
Y151642D01*
G02X165461I2961J3358D01*
G01Y146224D01*
X178961Y132724D01*
G37*
G36*
G01X231220Y140461D02*
X253815D01*
G02Y134539I3685J-2961D01*
G01X228772D01*
X222039Y141272D01*
Y151642D01*
G02X227961I2961J3358D01*
G01Y143720D01*
X231220Y140461D01*
G37*
G36*
G01X175461Y163776D02*
Y158358D01*
G02X169539I-2961J-3358D01*
G01Y166224D01*
X183165Y179854D01*
G03X182850Y180539I-283J285D01*
G02X186961Y184650I-350J4461D01*
G03X187646Y184335I400J-32D01*
G01X197039Y193724D01*
Y203815D01*
G02X202961I2961J3685D01*
G01Y191276D01*
X175461Y163776D01*
G37*
G36*
G01X263366Y158945D02*
X271055Y166634D01*
Y182886D01*
G02X278945I3945J2114D01*
G01Y163366D01*
X275650Y160071D01*
G03X275858Y159394I285J-283D01*
G02X270606Y154142I-858J-4394D01*
G03X269929Y154350I-394J-76D01*
G01X266634Y151055D01*
X247114D01*
G02Y158945I-2114J3945D01*
G01X263366D01*
G37*
G36*
G01X175461Y198776D02*
Y188358D01*
G02X169539I-2961J-3358D01*
G01Y201224D01*
X178776Y210461D01*
X186315D01*
G02Y204539I3685J-2961D01*
G01X181224D01*
X175461Y198776D01*
G37*
G36*
G01X90012Y152906D02*
Y158906D01*
G02X91488Y160382I1476J0D01*
G01X97488D01*
G02X98965Y158906I0J-1476D01*
G01Y152906D01*
G02X97488Y151429I-1476J0D01*
G01X91488D01*
G02X90012Y152906I0J1476D01*
G37*
G36*
G01X148024Y152000D02*
Y158000D01*
G02X149500Y159476I1476J0D01*
G01X155500D01*
G02X156976Y158000I0J-1476D01*
G01Y152000D01*
G02X155500Y150524I-1476J0D01*
G01X149500D01*
G02X148024Y152000I0J1476D01*
G37*
G36*
G01X210524D02*
Y158000D01*
G02X212000Y159476I1476J0D01*
G01X218000D01*
G02X219476Y158000I0J-1476D01*
G01Y152000D01*
G02X218000Y150524I-1476J0D01*
G01X212000D01*
G02X210524Y152000I0J1476D01*
G37*
G36*
G01X302000Y180524D02*
G02X300524Y182000I0J1476D01*
G01Y188000D01*
G02X302000Y189476I1476J0D01*
G01X308000D01*
G02X309476Y188000I0J-1476D01*
G01Y182000D01*
G02X308000Y180524I-1476J0D01*
G01X302000D01*
G37*
G36*
G01X323815Y94539D02*
X306185D01*
G02X306126Y100535I-3685J2962D01*
G01Y100531D01*
X306189Y100461D01*
X307039D01*
Y134469D01*
G03X306315Y134705I-401J-1D01*
G02X305461Y133815I-3809J2802D01*
G01Y128776D01*
X282961Y106276D01*
Y101185D01*
G02X277039I-2961J-3685D01*
G01Y108724D01*
X299539Y131224D01*
Y133815D01*
G02X306315Y140295I2961J3686D01*
G03X307039Y140531I323J237D01*
G01Y150406D01*
G03X306504Y150783I-401J0D01*
G02Y159217I-1504J4217D01*
G03X307039Y159594I134J378D01*
G01Y161280D01*
X301280Y167039D01*
X286272D01*
X282039Y171272D01*
Y181642D01*
G02Y188358I2961J3358D01*
G01Y198724D01*
X288776Y205461D01*
X313961D01*
X317961Y201461D01*
Y198685D01*
G02X311969Y198626I-2960J-3686D01*
G01X312039Y198689D01*
Y199012D01*
X311512Y199539D01*
X298031D01*
G03X297795Y198815I1J-401D01*
G02X292205I-2795J-3815D01*
G03X291969Y199539I-237J323D01*
G01X291224D01*
X287961Y196276D01*
Y188358D01*
G02Y181642I-2961J-3358D01*
G01Y173720D01*
X288720Y172961D01*
X303728D01*
X312961Y163728D01*
Y100461D01*
X323815D01*
G02Y94539I3685J-2961D01*
G37*
G54D18*
X327500Y137500D03*
X315000Y235000D03*
X280000Y137500D03*
X257500Y97500D03*
X193701Y89764D03*
X141732Y247874D03*
Y207874D03*
X146457Y61417D03*
Y71417D03*
Y33622D03*
X47244Y146457D03*
Y156457D03*
X42520Y71417D03*
X295000Y235000D03*
G54D19*
Y155000D03*
X285000D03*
X235000Y185000D03*
X245000D03*
X235000Y155000D03*
X215000Y185000D03*
X225000D03*
X182500Y155000D03*
X152500Y185000D03*
X162500D03*
X142835Y94488D03*
X295000Y185000D03*
%LPD*%
G75*
G54D10*
X19685Y19685D03*
Y255906D03*
X374016Y19685D03*
Y255906D03*
G54D11*
X42520Y33622D03*
Y23622D03*
Y71417D03*
Y61417D03*
X47244Y156457D03*
Y146457D03*
X90000Y97500D03*
Y137500D03*
X113386Y207874D03*
Y247874D03*
X146457Y33622D03*
Y23622D03*
Y71417D03*
Y61417D03*
X141732Y207874D03*
Y247874D03*
X193701Y89764D03*
Y129764D03*
X190000Y207500D03*
X200000D03*
X257500Y97500D03*
Y137500D03*
X280000Y97500D03*
Y137500D03*
X302500Y97500D03*
Y137500D03*
X315000Y195000D03*
X295000D03*
X315000Y235000D03*
X295000D03*
X327500Y97500D03*
Y137500D03*
G54D12*
X19685Y137480D03*
Y147480D03*
Y157480D03*
X104488Y155906D03*
Y185906D03*
X94488D03*
X132835Y104488D03*
X122835Y94488D03*
X124488Y155906D03*
X114488D03*
X124488Y185906D03*
X114488D03*
X142835Y94488D03*
X162500Y155000D03*
Y185000D03*
X152500D03*
X182500Y155000D03*
X172500D03*
X182500Y185000D03*
X172500D03*
X225000Y155000D03*
Y185000D03*
X215000D03*
X245000Y155000D03*
X235000D03*
X245000Y185000D03*
X235000D03*
X275000Y155000D03*
X285000D03*
X275000Y185000D03*
X285000D03*
X295000Y155000D03*
X305000D03*
X295000Y185000D03*
X374016Y147795D03*
Y137795D03*
G54D13*
X85039Y28346D03*
Y66142D03*
G54D14*
X95039Y28346D03*
X105039D03*
X95039Y66142D03*
X105039D03*
G54D15*
X94488Y155906D03*
X152500Y155000D03*
X215000D03*
X305000Y185000D03*
G54D16*
G01X105039Y66142D02*
Y72866D01*
X80000Y97906D01*
Y172500D01*
X85000Y177500D01*
X102500D01*
X104488Y179488D01*
Y185906D01*
G01X245000Y155000D02*
X265000D01*
X275000Y165000D01*
Y185000D01*
G54D17*
G01X37591Y23622D02*
X42520D01*
G01D02*
X47449D01*
G01X42520Y33622D02*
X23878D01*
X19685Y37815D01*
Y137480D01*
G01X42520Y71417D02*
Y76346D01*
G01X37591Y71417D02*
X42520D01*
G01D02*
X47449D01*
G01X42520Y61417D02*
X35551D01*
X30000Y66969D01*
Y155000D01*
X27520Y157480D01*
X19685D01*
G01Y142803D02*
Y147480D01*
G01D02*
Y152157D01*
G01Y147480D02*
X24362D01*
G01X42315Y146457D02*
X47244D01*
G01Y141528D02*
Y146457D01*
G01D02*
X52173D01*
G01X85039Y22917D02*
Y28346D01*
G01D02*
Y33776D01*
G01X79610Y28346D02*
X85039D01*
G01X95039Y60713D02*
Y66142D01*
G01D02*
Y71571D01*
G01X90000Y97500D02*
Y102429D01*
G01Y97500D02*
X94929D01*
G01X132835Y104488D02*
X98012D01*
X90000Y112500D01*
Y137500D01*
G01D02*
X100000D01*
X104488Y141988D01*
Y155906D01*
G01X122835Y94488D02*
X129886D01*
X137819Y102421D01*
Y157181D01*
X114488Y180512D01*
Y185906D01*
G01X113386Y207874D02*
X109504Y203992D01*
Y160890D01*
X114488Y155906D01*
G01X113386Y247874D02*
Y239114D01*
X120000Y232500D01*
Y191417D01*
X114488Y185906D01*
G01X141528Y23622D02*
X146457D01*
G01D02*
X151386D01*
G01X146457Y71417D02*
Y76346D01*
G01X141528Y71417D02*
X146457D01*
G01D02*
X151386D01*
G01X162500Y155000D02*
Y145000D01*
X177736Y129764D01*
X193701D01*
G01Y84835D02*
Y89764D01*
G01D02*
Y94693D01*
G01X188772Y89764D02*
X193701D01*
G01D02*
X198630D01*
G01X172500Y155000D02*
Y165000D01*
X200000Y192500D01*
Y207500D01*
G01X190000D02*
X180000D01*
X172500Y200000D01*
Y185000D01*
G01X252571Y97500D02*
X257500D01*
G01X225000Y155000D02*
Y142496D01*
X229996Y137500D01*
X257500D01*
G01Y92571D02*
Y97500D01*
G01D02*
Y102429D01*
G01Y97500D02*
X262429D01*
G01X302500Y137500D02*
Y130000D01*
X280000Y107500D01*
Y97500D01*
G01X285000Y185000D02*
Y172496D01*
X287496Y170000D01*
X302504D01*
X310000Y162504D01*
Y97500D01*
G01D02*
X327500D01*
G01X302500D02*
X310000D01*
G01X295000Y180323D02*
Y185000D01*
G01D02*
Y189677D01*
G01X290323Y185000D02*
X295000D01*
G01D02*
X299677D01*
G01X285000D02*
Y197500D01*
X290000Y202500D01*
X312736D01*
X315000Y200236D01*
Y195000D01*
G01X374016Y143118D02*
Y147795D01*
G01D02*
Y152472D01*
G01X369339Y147795D02*
X374016D01*
M02*
