G04 ================== begin FILE IDENTIFICATION RECORD ==================*
G04 Layout Name:  C:/USERS/USER/DESKTOP/VSCODE_ORCAD/WORKSPACE/CAD4/allegro/CAD4.brd*
G04 Film Name:    skikb*
G04 File Format:  Gerber RS274X*
G04 File Origin:  Cadence Allegro 17.2-P019*
G04 Origin Date:  Thu Aug 01 11:25:39 2019*
G04 *
G04 Layer:  REF DES/SILKSCREEN_BOTTOM*
G04 Layer:  PACKAGE GEOMETRY/SILKSCREEN_TOP*
G04 Layer:  PACKAGE GEOMETRY/SILKSCREEN_BOTTOM*
G04 Layer:  BOARD GEOMETRY/SILKSCREEN_TOP*
G04 Layer:  BOARD GEOMETRY/SILKSCREEN_BOTTOM*
G04 *
G04 Offset:    (0.000 0.000)*
G04 Mirror:    No*
G04 Mode:      Positive*
G04 Rotation:  0*
G04 FullContactRelief:  No*
G04 UndefLineWidth:     0.200*
G04 ================== end FILE IDENTIFICATION RECORD ====================*
%FSLAX25Y25*MOIN*%
%IR0*IPPOS*OFA0.00000B0.00000*MIA0B0*SFA1.00000B1.00000*%
%ADD10C,.019685*%
%ADD11C,.007992*%
%ADD12C,.007874*%
G75*
%LPD*%
G75*
G54D10*
G01X165008Y41929D02*
X169209D01*
X168815Y44224D01*
X168157Y45539D01*
X167240Y46193D01*
X166319Y45866D01*
X165531Y44882D01*
X165008Y42587D01*
X164744Y40618D01*
Y38650D01*
X165008Y36681D01*
X165665Y34713D01*
X166453Y33398D01*
X167370Y33071D01*
X168287Y33728D01*
X169209Y35697D01*
G01X175449Y33071D02*
Y52756D01*
G01X181953Y41929D02*
X186154D01*
X185760Y44224D01*
X185102Y45539D01*
X184185Y46193D01*
X183264Y45866D01*
X182476Y44882D01*
X181953Y42587D01*
X181689Y40618D01*
Y38650D01*
X181953Y36681D01*
X182610Y34713D01*
X183398Y33398D01*
X184315Y33071D01*
X185232Y33728D01*
X186154Y35697D01*
G01X194492Y44555D02*
X193575Y45866D01*
X192787Y46193D01*
X191736Y45539D01*
X190949Y44224D01*
X190425Y41929D01*
X190295Y39634D01*
X190425Y37335D01*
X190949Y35366D01*
X191736Y33728D01*
X192787Y33071D01*
X193705Y33728D01*
X194492Y35039D01*
G01X200866Y52756D02*
Y33071D01*
G01X199028Y46193D02*
X202705D01*
G01X207500Y33071D02*
Y46193D01*
G01Y43571D02*
X208157Y44882D01*
X208815Y45866D01*
X209732Y46193D01*
X210390Y45866D01*
X211177Y44882D01*
G01X217811Y33071D02*
X217024Y33398D01*
X216236Y34713D01*
X215713Y37008D01*
X215449Y39634D01*
X215713Y42256D01*
X216236Y44555D01*
X217024Y45866D01*
X217811Y46193D01*
X218598Y45866D01*
X219386Y44555D01*
X219909Y42256D01*
X220043Y39634D01*
X219909Y37008D01*
X219386Y34713D01*
X218598Y33398D01*
X217811Y33071D01*
G01X224051D02*
Y46193D01*
G01Y42913D02*
X224579Y44555D01*
X225366Y45866D01*
X226413Y46193D01*
X227335Y45866D01*
X228122Y44555D01*
X228516Y42256D01*
Y33071D01*
G01X234756Y46193D02*
Y33071D01*
G01Y51445D02*
X234492Y51772D01*
Y52429D01*
X234756Y52756D01*
X235020Y52429D01*
Y51772D01*
X234756Y51445D01*
G01X245327Y44555D02*
X244409Y45866D01*
X243622Y46193D01*
X242571Y45539D01*
X241783Y44224D01*
X241260Y41929D01*
X241130Y39634D01*
X241260Y37335D01*
X241783Y35366D01*
X242571Y33728D01*
X243622Y33071D01*
X244539Y33728D01*
X245327Y35039D01*
G01X262272Y44555D02*
X261354Y45866D01*
X260567Y46193D01*
X259516Y45539D01*
X258728Y44224D01*
X258205Y41929D01*
X258075Y39634D01*
X258205Y37335D01*
X258728Y35366D01*
X259516Y33728D01*
X260567Y33071D01*
X261484Y33728D01*
X262272Y35039D01*
G01X271008Y33071D02*
Y46193D01*
G01Y43898D02*
X270484Y45209D01*
X269697Y45866D01*
X268776Y46193D01*
X267858Y45539D01*
X267071Y44224D01*
X266547Y42256D01*
X266283Y39634D01*
X266547Y37008D01*
X267071Y35039D01*
X267858Y33728D01*
X268776Y33071D01*
X269697Y33398D01*
X270484Y34382D01*
X271008Y35697D01*
G01X279480Y52756D02*
Y33071D01*
G01Y36024D02*
X278957Y34382D01*
X278169Y33398D01*
X277248Y33071D01*
X276201Y33728D01*
X275413Y35366D01*
X274886Y37335D01*
X274756Y39634D01*
X274886Y41929D01*
X275413Y43898D01*
X276201Y45539D01*
X277248Y46193D01*
X278169Y45866D01*
X278823Y45209D01*
X279480Y43898D01*
G01X183921Y240945D02*
X183134Y241272D01*
X182346Y242587D01*
X181823Y244882D01*
X181559Y247508D01*
X181823Y250130D01*
X182346Y252429D01*
X183134Y253740D01*
X183921Y254067D01*
X184709Y253740D01*
X185496Y252429D01*
X186020Y250130D01*
X186154Y247508D01*
X186020Y244882D01*
X185496Y242587D01*
X184709Y241272D01*
X183921Y240945D01*
G01X190425Y243240D02*
X191083Y241929D01*
X192000Y240945D01*
X192787D01*
X193575Y241602D01*
X194098Y242587D01*
X194362Y243898D01*
X194232Y245866D01*
X193705Y246850D01*
X191343Y248819D01*
X190819Y251114D01*
X191083Y252756D01*
X191606Y253740D01*
X192394Y254067D01*
X193181Y253740D01*
X193969Y252756D01*
G01X202965Y252429D02*
X202047Y253740D01*
X201260Y254067D01*
X200209Y253413D01*
X199421Y252098D01*
X198898Y249803D01*
X198768Y247508D01*
X198898Y245209D01*
X199421Y243240D01*
X200209Y241602D01*
X201260Y240945D01*
X202177Y241602D01*
X202965Y242913D01*
G01X209339Y254067D02*
Y240945D01*
G01Y259319D02*
X209075Y259646D01*
Y260303D01*
X209339Y260630D01*
X209602Y260303D01*
Y259646D01*
X209339Y259319D01*
G01X217811Y240945D02*
Y260630D01*
G01X226283Y240945D02*
Y260630D01*
G01X237118Y240945D02*
Y254067D01*
G01Y251772D02*
X236594Y253083D01*
X235807Y253740D01*
X234886Y254067D01*
X233969Y253413D01*
X233181Y252098D01*
X232657Y250130D01*
X232394Y247508D01*
X232657Y244882D01*
X233181Y242913D01*
X233969Y241602D01*
X234886Y240945D01*
X235807Y241272D01*
X236594Y242256D01*
X237118Y243571D01*
G01X243228Y260630D02*
Y240945D01*
G01X241390Y254067D02*
X245067D01*
G01X251701Y240945D02*
X250913Y241272D01*
X250126Y242587D01*
X249602Y244882D01*
X249339Y247508D01*
X249602Y250130D01*
X250126Y252429D01*
X250913Y253740D01*
X251701Y254067D01*
X252488Y253740D01*
X253276Y252429D01*
X253799Y250130D01*
X253933Y247508D01*
X253799Y244882D01*
X253276Y242587D01*
X252488Y241272D01*
X251701Y240945D01*
G01X258335D02*
Y254067D01*
G01Y251445D02*
X258992Y252756D01*
X259650Y253740D01*
X260567Y254067D01*
X261224Y253740D01*
X262012Y252756D01*
G54D11*
G01X74039Y39846D02*
Y17346D01*
G01D02*
X116039D01*
G01Y39846D02*
X74039D01*
G01Y34346D02*
X116039D01*
G01X74039Y77642D02*
Y55142D01*
G01D02*
X116039D01*
G01X74039Y72142D02*
X116039D01*
G01Y77642D02*
X74039D01*
G01X116039Y17346D02*
Y39846D01*
G01Y55142D02*
Y77642D01*
G54D12*
G01X37520Y18622D02*
Y38622D01*
X47520D01*
Y18622D01*
X37520D01*
G01Y56417D02*
Y76417D01*
X47520D01*
Y56417D01*
X37520D01*
G01X14685Y162480D02*
X24685D01*
Y132480D01*
X14685D01*
Y162480D01*
G01X42244Y141457D02*
Y161457D01*
X52244D01*
Y141457D01*
X42244D01*
G01X95000Y131500D02*
Y103500D01*
X85000D01*
Y131500D01*
X95000D01*
G01X89488Y159906D02*
Y165906D01*
X91988Y168406D01*
Y173406D01*
X89488Y175906D01*
Y181906D01*
X129488D01*
Y159906D01*
X89488D01*
G01X112835Y84488D02*
Y114488D01*
X152835D01*
Y84488D01*
X112835D01*
G01X108386Y213874D02*
Y241874D01*
X118386D01*
Y213874D01*
X108386D01*
G01X141457Y18622D02*
Y38622D01*
X151457D01*
Y18622D01*
X141457D01*
G01Y56417D02*
Y76417D01*
X151457D01*
Y56417D01*
X141457D01*
G01X147500Y159000D02*
Y165000D01*
X150000Y167500D01*
Y172500D01*
X147500Y175000D01*
Y181000D01*
X187500D01*
Y159000D01*
X147500D01*
G01X136732Y213874D02*
Y241874D01*
X146732D01*
Y213874D01*
X136732D01*
G01X188701Y95764D02*
Y123764D01*
X198701D01*
Y95764D01*
X188701D01*
G01X205000Y202500D02*
X185000D01*
Y212500D01*
X205000D01*
Y202500D01*
G01X210000Y159000D02*
Y165000D01*
X212500Y167500D01*
Y172500D01*
X210000Y175000D01*
Y181000D01*
X250000D01*
Y159000D01*
X210000D01*
G01X262500Y131500D02*
Y103500D01*
X252500D01*
Y131500D01*
X262500D01*
G01X275000Y103500D02*
Y131500D01*
X285000D01*
Y103500D01*
X275000D01*
G01X310000Y181000D02*
Y175000D01*
X307500Y172500D01*
Y167500D01*
X310000Y165000D01*
Y159000D01*
X270000D01*
Y181000D01*
X310000D01*
G01X297500Y103500D02*
Y131500D01*
X307500D01*
Y103500D01*
X297500D01*
G01X320000Y229000D02*
Y201000D01*
X310000D01*
Y229000D01*
X320000D01*
G01X290000Y201000D02*
Y229000D01*
X300000D01*
Y201000D01*
X290000D01*
G01X322500Y103500D02*
Y131500D01*
X332500D01*
Y103500D01*
X322500D01*
G01X379016Y132795D02*
X369016D01*
Y152795D01*
X379016D01*
Y132795D01*
M02*
